# xmcd
#
# Track frame offsets:
#	150
#	14145
#	26924
#	42756
#	55747
#	70695
#	81005
#	93638
#	104070
#	119149
#	128334
#	140621
#	153056
#	165018
#	177444
#	189681
#	201189
#	213429
#	226188
#	237113
#	252011
#	263582
#	275832
#	289762
#	303574
#	314532
#
# Disc length: 4329 seconds
#
# Revision: 1
# Processed by: cddbd v1.5.1PL2 Copyright (c) Steve Scherf et al.
# Submitted via: audiograbber 1.83.01
#
DISCID=7510e71a
DTITLE=Various Artist - Vrazel's, Matocha and Others
DYEAR=1900
DGENRE=Polka
TTITLE0=Vrazel's Polka Band - Miner's Rose
TTITLE1=Vrazel's Polka Band - Cross In The Field
TTITLE2=Vrazel's Polka Band - Trust Me Darling
TTITLE3=Vrazel's Polka Band - Plow Polka
TTITLE4=Vrazel's Polka Band - Beautiful Song
TTITLE5=Vrazel's Polka Band - Under The Bridge
TTITLE6=Lee Roy Matocha - At The Dance
TTITLE7=Lee Roy Matocha - Memories Polka
TTITLE8=Lee Roy Matocha - Majarko
TTITLE9=Lee Roy Matocha - Cradle Polka
TTITLE10=Lee Roy Matocha - Beautiful Dream
TTITLE11=Lee Roy Matocha - Muziky, Kuziky
TTITLE12=Lee Roy Matocha - Accordian Waltz
TTITLE13=Lee Roy Matocha - Under The Bridge
TTITLE14=Lee Roy Matocha - Hastrman Waltz
TTITLE15=Lee Roy Matocha - It's Your Fault
TTITLE16=Lee Roy Matocha - What Can Happen
TTITLE17=Lee Roy Matocha - Country Boy Polka
TTITLE18=Lee Roy Matocha - In Love
TTITLE19=Lee Roy Matocha - Mountain Waltz
TTITLE20=Lee Roy Matocha - Last Dance
TTITLE21=Lee Roy Matocha - Beautiful Sheapard
TTITLE22=Lee Roy Matocha - Youth And Pleasure
TTITLE23=Lee Roy Matocha - Lazy Farmer
TTITLE24=Dujka Brothers - Apples, Peaches, Pumpkin Pie
TTITLE25=Singing Dutchmen - Clarinet Polka
EXTD=
EXTT0=
EXTT1=
EXTT2=
EXTT3=
EXTT4=
EXTT5=
EXTT6=
EXTT7=
EXTT8=
EXTT9=
EXTT10=
EXTT11=
EXTT12=
EXTT13=
EXTT14=
EXTT15=
EXTT16=
EXTT17=
EXTT18=
EXTT19=
EXTT20=
EXTT21=
EXTT22=
EXTT23=
EXTT24=
EXTT25=
PLAYORDER=
